<svg xmlns="http://www.w3.org/2000/svg" xmlns:xlink="http://www.w3.org/1999/xlink" width="1080" zoomAndPan="magnify" viewBox="0 0 810 1439.999935" height="1920" preserveAspectRatio="xMidYMid meet" version="1.0"><defs><clipPath id="719b821699"><path d="M 0 0 L 810 0 L 810 872 L 0 872 Z M 0 0 " clip-rule="nonzero"/></clipPath><clipPath id="58d8b75031"><path d="M 1007.089844 413.714844 L 250.375 876.957031 L -125.542969 262.886719 L 631.171875 -200.355469 Z M 1007.089844 413.714844 " clip-rule="nonzero"/></clipPath><clipPath id="ad34b62b45"><path d="M 0 0 L 810 0 L 810 577 L 0 577 Z M 0 0 " clip-rule="nonzero"/></clipPath><clipPath id="3f5b385612"><path d="M 1007.089844 413.714844 L 250.375 876.957031 L -125.542969 262.886719 L 631.171875 -200.355469 Z M 1007.089844 413.714844 " clip-rule="nonzero"/></clipPath><clipPath id="55f7be5e6a"><path d="M 250.15625 877.09375 L 1006.871094 413.851562 L 630.953125 -200.222656 L -125.765625 263.023438 Z M 250.15625 877.09375 " clip-rule="nonzero"/></clipPath><clipPath id="4f106efb22"><rect x="0" width="810" y="0" height="872"/></clipPath><clipPath id="6f6524afbe"><path d="M 0 0 L 810 0 L 810 246.722656 L 0 246.722656 Z M 0 0 " clip-rule="nonzero"/></clipPath></defs><g clip-path="url(#719b821699)"><g clip-path="url(#58d8b75031)"><g transform="matrix(1, 0, 0, 1, 0, -0.000000000000101068)"><g clip-path="url(#4f106efb22)"><g clip-path="url(#ad34b62b45)"><g clip-path="url(#3f5b385612)"><g clip-path="url(#55f7be5e6a)"><path fill="#dc4405" d="M 851.179688 450.519531 C 821.773438 526.753906 739.375 576.253906 657.777344 576.429688 C 576.175781 576.609375 498.039062 533.34375 444.867188 471.035156 C 381.019531 397.421875 336.507812 289.429688 240.3125 270.367188 C 228.714844 268.242188 217.03125 267.566406 205.265625 268.34375 C 160.765625 269.289062 116.957031 286.714844 72.234375 293.429688 C 27.507812 300.148438 -66.09375 294.523438 -125.582031 263.320312 L 631.355469 -200.054688 L 829.167969 123.074219 L 831.59375 163.855469 C 842.753906 260.332031 885.816406 359.820312 851.179688 450.519531 Z M 851.179688 450.519531 " fill-opacity="1" fill-rule="nonzero"/></g></g></g></g></g></g></g><g clip-path="url(#6f6524afbe)"><path fill="#dc4405" d="M 1012.109375 -1562.929688 C 836.835938 -1697.089844 577.167969 -1694.925781 388.910156 -1580.242188 C 200.65625 -1465.554688 81.640625 -1255.660156 47.019531 -1037.109375 C 3.742188 -777.441406 53.511719 -465.84375 -141.238281 -286.242188 C -164.96875 -264.988281 -190.933594 -246.957031 -219.136719 -232.148438 C -323.003906 -171.558594 -448.507812 -149.917969 -561.027344 -102.3125 C -673.550781 -54.707031 -881.28125 90.269531 -974.328125 246.070312 L 1423.246094 246.070312 L 1423.246094 -777.441406 L 1371.3125 -874.816406 C 1260.953125 -1112.84375 1219.839844 -1402.804688 1012.109375 -1562.929688 Z M 1012.109375 -1562.929688 " fill-opacity="1" fill-rule="nonzero"/></g></svg>